<mxfile host="app.diagrams.net" modified="2024-04-15T01:20:29.224Z" agent="Mozilla/5.0 (Windows NT 10.0; Win64; x64) AppleWebKit/537.36 (KHTML, like Gecko) Chrome/123.0.0.0 Safari/537.36" version="24.2.5" etag="q2W86liisv6l86pqPP3x" type="github">
  <diagram name="第 1 页" id="N4fUJIOXcd8arKUr6l5r">
    <mxGraphModel>
      <root>
        <mxCell id="0" />
        <mxCell id="1" parent="0" />
      </root>
    </mxGraphModel>
  </diagram>
</mxfile>
